<?xml version="1.0" encoding="utf-8"?>
<!-- Generator: Adobe Illustrator 16.0.0, SVG Export Plug-In . SVG Version: 6.00 Build 0)  -->
<!DOCTYPE svg PUBLIC "-//W3C//DTD SVG 1.1//EN" "http://www.w3.org/Graphics/SVG/1.1/DTD/svg11.dtd">
<svg version="1.1" xmlns="http://www.w3.org/2000/svg" xmlns:xlink="http://www.w3.org/1999/xlink" x="0px" y="0px" width="500px"
	 height="500px" viewBox="0 0 500 500" enable-background="new 0 0 500 500" xml:space="preserve">
<g id="Layer_2" display="none">
	<linearGradient id="SVGID_1_" gradientUnits="userSpaceOnUse" x1="-35" y1="255" x2="514" y2="255">
		<stop  offset="0" style="stop-color:#333333"/>
		<stop  offset="1" style="stop-color:#000000"/>
	</linearGradient>
	<rect x="-35" display="inline" fill-rule="evenodd" clip-rule="evenodd" fill="url(#SVGID_1_)" width="549" height="510"/>
</g>
<g id="Layer_1">
	<g>
		<path fill-rule="evenodd" clip-rule="evenodd" fill="#FFFF00" d="M185.257,246.615c-9.385-0.929-17.637-2.273-25.915-2.457
			c-18.407-0.413-36.838-0.646-55.237-0.143c-9.212,0.253-17.074-1.262-20.917-10.23c-3.691-8.615,0.66-15.44,7.913-22.143
			c3.372,0,7.736,0.011,12.102-0.002c46.039-0.129,92.078-0.186,138.117-0.477c7.568-0.045,15.128-1.185,22.705-1.724
			c4.992-0.356,9.544-2.667,8.457-7.696c-0.7-3.278-5.046-7.092-8.528-8.148c-5.613-1.704-11.853-1.65-17.834-1.775
			c-12.81-0.265-25.624-0.106-38.433-0.253c-3.875-0.043-7.744-0.506-12.032-0.805c0-6.531,0-11.99,0-18.795
			c-4.25-0.209-8.484-0.467-12.721-0.624c-16.785-0.614-33.585-0.949-50.351-1.894c-9.842-0.554-16.351-7.166-16.501-15.512
			c-0.154-8.646,8.204-17.222,17.835-17.349c21.616-0.281,43.241-0.409,64.852-0.004c8.162,0.153,13.423-2.705,17.711-9.587
			c14.44-23.17,30.97-44.777,50.66-63.77c6.313-6.086,13.063-11.866,20.24-16.883c46.304-32.371,99.848-25.585,139.879,10.367
			c13.086,11.753,25.246,24.54,37.747,36.935c37.932,37.591,40.146,96.431,10.511,136.384
			c-39.688,53.514-88.76,94.143-158.217,103.041c-32.075,4.107-64.075,9.157-93.992,22.527c-5.087,2.273-9.174,0.999-12.993-2.825
			c-11.034-11.043-22.104-22.057-33.345-32.889c-4.552-4.387-3.586-8.593-1.984-14.092c4.005-13.741,7.257-27.732,10.102-41.768
			C186.154,258.768,185.257,253.108,185.257,246.615z M272.533,309.236c-9.353-17.48-42.825-48.435-53.627-50.862
			c-6.75,14.448-9.092,47.861-3.568,58.595C234.467,319.345,253.111,316.019,272.533,309.236z M343.077,89.968
			c-7.43,0.285-13.888,6.876-13.678,13.972c0.245,8.333,7.43,14.478,16.257,13.903c7.932-0.518,13.155-6.38,12.773-14.327
			C358.045,95.668,351.236,89.652,343.077,89.968z M299.526,135.895c0.151,8.192,6.45,14.91,13.92,14.843
			c8.419-0.078,15.418-7.216,14.933-15.225c-0.467-7.662-7.534-13.797-15.411-13.38
			C305.213,122.544,299.396,128.503,299.526,135.895z M373.942,238.119c7.989-0.018,15.114-6.45,15.169-13.678
			c0.044-6.057-8.561-14.021-15.398-14.247c-7.937-0.261-14.584,6.297-14.294,14.095
			C359.738,232.737,365.413,238.138,373.942,238.119z M375.086,156.725c8.454,0.099,14.802-5.883,14.702-13.843
			c-0.095-7.382-7.431-14.143-15.143-13.956c-7.362,0.179-13.062,6.443-12.97,14.25
			C361.774,151.282,367.066,156.631,375.086,156.725z M282.699,154.773c-7.386,0.013-13.797,6.401-13.563,13.52
			c0.244,7.52,6.265,14.216,13.006,14.472c7.59,0.289,16.012-7.372,15.997-14.541C298.123,161.224,290.704,154.759,282.699,154.773z
			 M358.777,177.437c0.161-7.652-5.485-13.627-13.296-14.061c-7.47-0.416-14.777,6.409-15.055,14.059
			c-0.244,6.972,6.13,13.475,13.679,13.933C352.279,191.867,358.599,185.868,358.777,177.437z M440.793,168.5
			c0.227-7.731-6.203-14.915-13.722-15.326c-6.829-0.374-14.208,6.309-14.501,13.131c-0.324,7.595,6.422,15.016,13.841,15.219
			C433.688,181.722,440.597,175.468,440.793,168.5z M399.347,206.782c7.612,0.045,14.414-6.158,14.394-13.135
			c-0.02-7.191-7.834-14.725-14.967-14.426c-6.854,0.289-13.181,6.369-13.462,12.935
			C384.968,200.375,391.062,206.73,399.347,206.782z M316.72,195.608c-7.426-0.208-14.173,5.838-14.401,12.91
			c-0.218,6.853,7.542,14.618,14.647,14.663c7.312,0.046,14.161-6.319,14.292-13.279
			C331.404,202.195,324.941,195.833,316.72,195.608z M343.607,241.268c-8.664,0.232-13.541,5.193-13.081,13.314
			c0.399,7.127,7.011,14.049,13.591,14.228c7.641,0.205,14.675-6.798,14.371-14.3C358.137,245.978,352.572,241.025,343.607,241.268z
			"/>
		<path fill-rule="evenodd" clip-rule="evenodd" fill="#FFFF00" d="M206.447,371.508c-10.896,10.091-20.204,18.267-29,26.966
			c-12.239,12.099-24.426,24.289-35.944,37.064c-4.355,4.83-8.083,11.021-9.866,17.227c-5.185,18.067-20.642,23.052-34.49,10.266
			c-8.819-8.146-17.847-16.138-25.96-24.956c-12.875-13.995-9.188-27.313,8-34.893c7.111-3.133,13.931-7.928,19.488-13.388
			c17.701-17.393,34.721-35.473,52.062-53.23c3.027-3.1,6.333-5.921,8.382-7.824C174.517,342.655,189.214,355.935,206.447,371.508z"
			/>
		<path fill-rule="evenodd" clip-rule="evenodd" fill="#FFFF00" d="M103.74,315.804c-7.982,0-15.965,0.113-23.946-0.026
			c-9.424-0.167-16.383-6.251-17.082-14.671c-0.769-9.288,5.096-18.627,14.247-19.084c17.896-0.892,35.915-0.966,53.796,0.102
			c10.596,0.633,15.919,8.611,14.8,18.061c-1.113,9.363-7.708,15.043-17.87,15.38c-0.797,0.024-1.596,0.021-2.394,0.021
			c-7.185,0.003-14.368,0.003-21.551,0.003C103.74,315.659,103.74,315.731,103.74,315.804z"/>
		<path fill-rule="evenodd" clip-rule="evenodd" fill="#FFFF00" d="M36.637,211.653c4.967,0.738,13.282-2.831,19.745,4.809
			c4.468,5.281,5.352,10.31,3.036,16.508c-2.313,6.196-6.454,10.262-13.093,10.588c-8.38,0.414-16.81,0.467-25.189,0.062
			c-9.243-0.449-15.773-7.643-15.614-16.34c0.146-7.98,6.508-14.671,15.315-15.554C25.194,211.292,29.628,211.653,36.637,211.653z"
			/>
		<path fill-rule="evenodd" clip-rule="evenodd" fill="#FFFF00" d="M74.425,136.544c8.381-0.413,16.002,0.505,20.258,9.31
			c4.463,9.24,0.317,20.833-9.74,22.94c-7.549,1.583-15.775,1.298-23.502,0.293c-7.093-0.921-12.972-10.048-12.558-16.9
			c0.42-6.974,7.223-14.055,14.778-15.052C67.213,136.668,70.834,136.724,74.425,136.544z"/>
	</g>
</g>
</svg>
